# AST/ASF file generated using VICON BodyLanguage
# -----------------------------------------------
:version 1.10
:name VICON
:units
  mass 1.0
  length 0.45
  angle deg
:documentation
   .ast/.asf automatically generated from VICON data using
   VICON BodyBuilder and BodyLanguage model FoxedUp or BRILLIANT.MOD
:root
   order TX TY TZ RX RY RZ
   axis XYZ
   position 0 0 0  
   orientation 0 0 0 
:bonedata
  begin
     id 1 
     name lhipjoint
     direction 0.602128 -0.715006 0.355257 
     length 2.21237 
     axis 0 0 0  XYZ
  end
  begin
     id 2 
     name lfemur
     direction 0.34202 -0.939693 0  
     length 6.71649  
     axis 0 0 20  XYZ
    dof rx ry rz
    limits (-160.0 20.0)
           (-70.0 70.0)
           (-60.0 70.0)
  end
  begin
     id 3 
     name ltibia
     direction 0.34202 -0.939693 0   
     length 6.97123   
     axis 0 0 20   XYZ
    dof rx
    limits (-10.0 170.0)
  end
  begin
     id 4 
     name lfoot
     direction 0.0655697 -0.180151 0.981451   
     length 1.80924   
     axis -90 7.62852e-016 20   XYZ
    dof rx rz
    limits (-45.0 90.0)
           (-70.0 20.0)
  end
  begin
     id 5 
     name ltoes
     direction 1.53545e-011 -4.21827e-011 1   
     length 0.916331   
     axis -90 7.62852e-016 20   XYZ
    dof rx
    limits (-90.0 20.0)
  end
  begin
     id 6 
     name rhipjoint
     direction -0.625414 -0.698792 0.347201   
     length 2.2637  
     axis 0 0 0  XYZ 
  end
  begin
     id 7 
     name rfemur
     direction -0.34202 -0.939693 0   
     length 7.07595   
     axis 0 0 -20   XYZ
    dof rx ry rz
    limits (-160.0 20.0)
           (-70.0 70.0)
           (-70.0 60.0)
  end
  begin
     id 8 
     name rtibia
     direction -0.34202 -0.939693 0   
     length 7.22924   
     axis 0 0 -20   XYZ
    dof rx
    limits (-10.0 170.0)
 end
 begin
     id 9 
     name rfoot
     direction -0.0766747 -0.210662 0.974547   
     length 1.98482  
     axis -90 -7.62852e-016 -20   XYZ
    dof rx rz
    limits (-45.0 90.0)
           (-20.0 70.0)
  end
  begin
     id 10 
     name rtoes
     direction -1.53532e-011 -4.21867e-011 1   
     length 0.999842   
     axis -90 -7.62852e-016 -20   XYZ
    dof rx
    limits (-90.0 20.0)
  end
  begin
     id 11 
     name lowerback
     direction -0.0224668 0.997354 -0.0691422   
     length 2.09945   
     axis 0 0 0   XYZ
    dof rx ry rz
    limits (-20.0 45.0)
           (-30.0 30.0)
           (-30.0 30.0)
  end
  begin
     id 12 
     name upperback
     direction 0.0134698 0.998451 -0.0539888   
     length 2.09758   
     axis 0 0 0   XYZ
    dof rx ry rz
    limits (-20.0 45.0)
           (-30.0 30.0)
           (-30.0 30.0)
  end
  begin
     id 13 
     name thorax
     direction 0.0241905 0.99948 -0.0213333   
     length 2.10428   
     axis 0 0 0   XYZ
    dof rx ry rz
    limits (-20.0 45.0)
           (-30.0 30.0)
           (-30.0 30.0)
  end
  begin
     id 14 
     name lowerneck
     direction -0.00866847 0.995978 0.0891737   
     length 1.3959   
     axis 0 0 0   XYZ
    dof rx ry rz
    limits (-20.0 45.0)
           (-30.0 30.0)
           (-30.0 30.0)
  end
  begin
     id 15 
     name upperneck
     direction 0.0680679 0.992203 0.104404   
     length 1.39452   
     axis 0 0 0   XYZ
    dof rx ry rz
    limits (-20.0 45.0)
           (-30.0 30.0)
           (-30.0 30.0)
  end
  begin
     id 16
     name head
     direction 0.0242216 0.999358 0.0264054  
     length 1.40433  
     axis 0 0 0   XYZ
    dof rx ry rz
    limits (-20.0 45.0)
           (-30.0 30.0)
           (-30.0 30.0)
  end
  begin
     id 17 
     name lclavicle
     direction 0.929368 0.362991 -0.0671771  
     length 3.04887  
     axis 0 0 0   XYZ
    dof ry rz
    limits (-20.0 10.0)
           (0.0 20.0)
  end
  begin
     id 18 
     name lhumerus
     direction 1 -4.48967e-011 -7.13741e-028   
     length 4.77195   
     axis -180 -30 -90   XYZ
    dof rx ry rz
    limits (-60.0 90.0)
           (-90.0 90.0)
           (-90.0 90.0)
  end
  begin
     id 19
     name lradius
     direction 1 -4.48977e-011 3.60404e-027   
     length 2.98444   
     axis -180 -30 -90   XYZ
    dof rx
    limits (-10.0 170.0)
  end
  begin
     id 20
     name lwrist
     direction 1 -4.48997e-011 7.54877e-027   
     length 1.49222   
     axis -7.18178e-015 90 90   XYZ
    dof ry
    limits (-180.0 0.0)
 end
  begin
     id 21 
     name lhand
     direction 1 -4.489e-011 1.51105e-026   
     length 0.992285   
     axis -9.63605e-015 90 90   XYZ
    dof rx rz
    limits (-90.0 90.0)
           (-45.0 45.0)
  end
  begin
     id 22 
     name lfingers
     direction 1 -4.48998e-011 3.01948e-026   
     length 0.800006   
     axis -1.92718e-014 90 90   XYZ
    dof rx
    limits (0.0 90.0)
  end
  begin
     id 23
     name lthumb
     direction 0.707107 -6.34881e-011 0.707107   
     length 1.14865   
     axis -90 45 -3.53137e-014   XYZ
    dof rx rz
    limits (-45.0 45.0)
           (-45.0 45.0)
  end
  begin
     id 24 
     name rclavicle
     direction -0.945672 0.324529 0.0196374   
     length 3.4236  
     axis 0 0 0   XYZ 
    dof ry rz
    limits (-10.0 20.0)
           (-20.0 0.0)
  end
  begin
     id 25 
     name rhumerus
     direction -1 -4.4896e-011 1.02757e-029  
     length 4.62052   
     axis -180 30 90   XYZ
    dof rx ry rz
    limits (-90.0 60.0)
           (-90.0 90.0)
           (-90.0 90.0)
  end
  begin
     id 26 
     name rradius
     direction -1 -4.48982e-011 3.85962e-027   
     length 2.95332   
     axis -180 30 90   XYZ
    dof rx
    limits (-10.0 170.0)
  end
  begin
     id 27 
     name rwrist
     direction -1 -4.48961e-011 7.55118e-027   
     length 1.47666   
     axis -7.18178e-015 -90 -90   XYZ
    dof ry
    limits (-180.0 0.0)
  end
  begin
     id 28
     name rhand
     direction -1 -4.48984e-011 1.50994e-026   
     length 0.990956   
     axis -9.63605e-015 -90 -90   XYZ
    dof rx rz
    limits (-90.0 90.0)
           (-45.0 45.0)
  end
  begin
     id 29
     name rfingers
     direction -1 -4.4892e-011 3.02158e-026   
     length 0.798934   
     axis -1.92718e-014 -90 -90   XYZ
    dof rx
    limits (0.0 90.0)
  end
  begin
     id 30
     name rthumb
     direction -0.707107 -6.34916e-011 0.707107   
     length 1.14711   
     axis -90 -45 3.53137e-014   XYZ
    dof rx rz
    limits (-45.0 45.0)
           (-45.0 45.0)
  end
:hierarchy
  begin
    root lhipjoint rhipjoint lowerback
    lhipjoint lfemur
    lfemur ltibia
    ltibia lfoot
    lfoot ltoes
    rhipjoint rfemur
    rfemur rtibia
    rtibia rfoot
    rfoot rtoes
    lowerback upperback
    upperback thorax
    thorax lowerneck lclavicle rclavicle
    lowerneck upperneck
    upperneck head
    lclavicle lhumerus
    lhumerus lradius
    lradius lwrist
    lwrist lhand lthumb
    lhand lfingers
    rclavicle rhumerus
    rhumerus rradius
    rradius rwrist
    rwrist rhand rthumb
    rhand rfingers
  end

#!OML:ASF H:\ManfredObstacles\Project 1\Capture day 1\Session 1\Male.ASF
:FULLY-SPECIFIED
:DEGREES
274
root -2.63023 16.2485 26.2407 -213.768 -61.826 -150.071
lowerback 17.0288 -1.6963 -1.37178
upperback 10.2605 -3.40944 2.70335
thorax 1.68598 -2.30071 4.12397
lowerneck 1.10342 -3.73336 -2.78284
upperneck 2.7953 -5.42494 10.1791
head 1.09436 -2.73907 3.75369
rclavicle 3.57812e-015 1.59028e-015
rhumerus -36.0643 0.113364 -72.246
rradius 57.329
rwrist 12.7718
rhand 35.8614 -2.08666
rfingers 7.12502
rthumb 58.885 -16.9865
lclavicle 3.57812e-015 1.59028e-015
lhumerus -12.1031 -4.86577 79.1992
lradius 29.8617
lwrist -15.0326
lhand -9.76837 8.04783
lfingers 7.12502
lthumb 16.2067 37.3904
rfemur -132.618 -16.4655 32.8457
rtibia 126.742
rfoot -23.5382 22.803
rtoes -7.37763
lfemur -2.12456 -14.9351 -10.3606
ltibia 23.8862
lfoot -10.7986 -9.34581
ltoes -23.3037
275
root -2.66067 16.2542 26.1532 -214.844 -61.9329 -148.906
lowerback 16.872 -1.68362 -1.38973
upperback 10.338 -3.39874 2.72764
thorax 1.85297 -2.30174 4.14627
lowerneck 1.3641 -4.13444 -2.47121
upperneck 2.70307 -5.94315 9.93991
head 1.03616 -3.0032 3.60897
rclavicle 1.59028e-015 1.59028e-014
rhumerus -35.5167 0.0235128 -71.7626
rradius 57.568
rwrist 11.555
rhand 37.1354 -2.31755
rfingers 7.12502
rthumb 59.9811 -16.1177
lclavicle 1.59028e-015 1.59028e-014
lhumerus -11.9256 -4.03525 78.8688
lradius 29.0594
lwrist -16.2175
lhand -9.59147 8.04665
lfingers 7.12502
lthumb 16.377 37.3752
rfemur -132.557 -17.8612 30.2349
rtibia 122.889
rfoot -20.2097 18.6438
rtoes -6.17596
lfemur -1.83824 -15.1779 -9.68615
ltibia 23.6355
lfoot -11.0511 -9.4362
ltoes -23.7482
276
root -2.6823 16.2706 26.0728 -215.966 -61.9457 -147.651
lowerback 16.6372 -1.6606 -1.52935
upperback 10.4062 -3.39251 2.90586
thorax 2.06993 -2.31827 4.39735
lowerneck 1.54897 -4.47541 -2.18142
upperneck 2.70261 -6.37837 9.56068
head 1.00757 -3.2206 3.42096
rclavicle 2.3059e-014 4.92986e-014
rhumerus -34.889 0.152314 -71.209
rradius 57.5896
rwrist 10.8906
rhand 37.7267 -2.40169
rfingers 7.12502
rthumb 60.4855 -15.662
lclavicle 2.3059e-014 4.92986e-014
lhumerus -11.7728 -2.32691 78.7216
lradius 28.1069
lwrist -17.8814
lhand -9.36729 7.864
lfingers 7.12502
lthumb 16.5929 37.1747
rfemur -131.428 -19.3438 27.4031
rtibia 119.041
rfoot -16.402 14.4211
rtoes -4.33809
lfemur -1.40784 -15.4816 -8.92925
ltibia 22.9948
lfoot -11.0731 -9.29401
ltoes -24.4085
277
root -2.69866 16.2987 25.9984 -217.326 -61.8605 -146.089
lowerback 16.3359 -1.72491 -1.61622
upperback 10.3747 -3.47829 3.10782
thorax 2.22119 -2.37112 4.65619
lowerneck 1.71931 -4.50318 -2.71624
upperneck 3.1957 -6.49027 9.98864
head 1.18239 -3.27752 3.66932
rclavicle 1.59028e-015 2.22639e-014
rhumerus -34.5776 0.431789 -70.8674
rradius 57.5815
rwrist 10.7751
rhand 37.7894 -2.35133
rfingers 7.12502
rthumb 60.5388 -15.5533
lclavicle 1.59028e-015 2.22639e-014
lhumerus -11.9942 -0.442863 78.528
lradius 27.2761
lwrist -18.8901
lhand -9.43923 7.67886
lfingers 7.12502
lthumb 16.5236 36.9953
rfemur -129.322 -20.8817 24.4464
rtibia 115.284
rfoot -13.4914 10.9733
rtoes -7.67811
lfemur -0.906374 -15.795 -7.96101
ltibia 22.0564
lfoot -10.7793 -9.29422
ltoes -24.1229
278
root -2.71411 16.3282 25.9241 -218.41 -61.8392 -144.899
lowerback 16.0885 -1.80299 -1.90593
upperback 10.2745 -3.59387 3.19279
thorax 2.27834 -2.43685 4.91465
lowerneck 2.09044 -4.5054 -2.74914
upperneck 3.65099 -6.56129 10.1876
head 1.27918 -3.31912 3.7507
rclavicle 1.82882e-014 -2.22639e-014
rhumerus -34.3078 0.711956 -70.7597
rradius 57.2961
rwrist 10.8985
rhand 37.048 -2.36221
rfingers 7.12502
rthumb 59.9063 -16.2405
lclavicle 1.82882e-014 -2.22639e-014
lhumerus -12.5264 1.55894 78.184
lradius 26.5941
lwrist -19.7042
lhand -9.42063 7.65096
lfingers 7.12502
lthumb 16.5415 36.9659
rfemur -126.304 -22.4207 21.0082
rtibia 111.627
rfoot -10.0589 9.15893
rtoes -3.97908
lfemur -0.15393 -16.0802 -7.19133
ltibia 20.8514
lfoot -10.4642 -9.30125
ltoes -24.1036
279
root -2.73362 16.3569 25.8511 -219.072 -61.8923 -144.231
lowerback 15.7802 -1.73051 -2.16689
upperback 10.2826 -3.51426 3.11832
thorax 2.45066 -2.40364 4.95427
lowerneck 2.11678 -4.60679 -3.25315
upperneck 4.09317 -6.77482 10.6072
head 1.47411 -3.4251 3.98975
rclavicle -1.19271e-014 1.90833e-014
rhumerus -33.9458 0.268531 -70.7201
rradius 56.7672
rwrist 11.3146
rhand 35.7172 -2.61216
rfingers 7.12502
rthumb 58.7602 -17.6313
lclavicle -1.19271e-014 1.90833e-014
lhumerus -12.9081 2.87804 77.8069
lradius 26.0773
lwrist -20.1148
lhand -9.35135 7.67165
lfingers 7.12502
lthumb 16.6082 36.981
rfemur -122.461 -23.7024 17.115
rtibia 108.077
rfoot -7.80638 7.41417
rtoes -4.8923
lfemur 0.846471 -16.3205 -6.75367
ltibia 19.3353
lfoot -10.137 -9.06477
ltoes -25.0084
280
root -2.75437 16.3922 25.7817 -219.653 -61.7342 -143.512
lowerback 15.2547 -1.55812 -1.98152
upperback 10.3379 -3.24551 2.94099
thorax 2.73226 -2.25012 4.59614
lowerneck 1.90563 -4.95749 -2.91294
upperneck 4.40564 -7.29281 10.7361
head 1.64744 -3.669 3.95184
rclavicle 7.95139e-015 -7.95139e-015
rhumerus -33.6241 -0.733693 -70.8235
rradius 56.1013
rwrist 11.8295
rhand 34.1978 -3.1523
rfingers 7.12502
rthumb 57.4362 -19.3691
lclavicle 7.95139e-015 -7.95139e-015
lhumerus -13.1969 3.45664 77.3674
lradius 25.742
lwrist -20.1419
lhand -9.21513 7.26914
lfingers 7.12502
lthumb 16.7393 36.5675
rfemur -118.021 -24.3378 13.1772
rtibia 104.706
rfoot -6.22079 6.2547
rtoes -6.51648
lfemur 1.78885 -16.4468 -6.16511
ltibia 17.6399
lfoot -9.61242 -8.77121
ltoes -25.654
281
root -2.77783 16.429 25.7099 -220.62 -61.4331 -142.622
lowerback 15.0276 -1.42194 -1.81259
upperback 10.3347 -3.03249 2.84171
thorax 2.8102 -2.12616 4.35843
lowerneck 1.75918 -5.2146 -2.59818
upperneck 4.92111 -7.71772 10.8825
head 1.87057 -3.86501 3.92674
rclavicle -2.38542e-014 -6.52014e-014
rhumerus -33.4197 -1.33438 -71.011
rradius 55.3255
rwrist 12.2349
rhand 32.3427 -3.76014
rfingers 7.12502
rthumb 55.7999 -21.304
lclavicle -2.38542e-014 -6.52014e-014
lhumerus -13.8227 4.53157 76.8277
lradius 25.3799
lwrist -20.5542
lhand -8.95982 6.82993
lfingers 7.12502
lthumb 16.9851 36.1073
rfemur -112.996 -24.4443 9.3155
rtibia 101.701
rfoot -5.21946 5.83945
rtoes -7.65631
lfemur 3.16047 -16.6206 -5.47694
ltibia 15.7114
lfoot -8.92571 -8.53976
ltoes -25.6247
282
root -2.80912 16.4666 25.6275 -220.572 -61.2324 -141.916
lowerback 13.6911 -1.36765 -2.08391
upperback 10.0872 -2.90803 2.85387
thorax 3.25269 -2.04853 4.45242
lowerneck 1.71657 -5.24661 -2.96957
upperneck 5.55163 -7.88263 11.3663
head 2.14612 -3.94108 4.16275
rclavicle -2.14687e-014 1.43125e-014
rhumerus -33.4574 -1.6565 -71.1843
rradius 54.6564
rwrist 12.8111
rhand 30.3066 -4.40383
rfingers 7.12502
rthumb 53.9824 -23.2538
lclavicle -2.14687e-014 1.43125e-014
lhumerus -14.8184 5.95347 76.234
lradius 25.0299
lwrist -21.2684
lhand -8.90645 7.31474
lfingers 7.12502
lthumb 17.0365 36.5877
rfemur -108.982 -24.3664 6.05489
rtibia 99.0509
rfoot -4.42409 5.87565
rtoes -8.70783
lfemur 3.67108 -16.4289 -4.59596
ltibia 13.6751
lfoot -7.96025 -8.39895
ltoes -24.9986
283
root -2.84056 16.5061 25.5461 -221.004 -61.1673 -140.942
lowerback 12.7437 -1.30736 -2.20478
upperback 9.8515 -2.76771 2.79191
thorax 3.49252 -1.95439 4.40448
lowerneck 1.80599 -5.48762 -2.46818
upperneck 5.94786 -8.27977 11.4237
head 2.27407 -4.13005 4.07723
rclavicle 1.08934e-013 -2.06736e-014
rhumerus -33.8414 -2.22151 -71.4734
rradius 54.1011
rwrist 13.5908
rhand 28.0481 -4.97555
rfingers 7.12502
rthumb 51.9438 -25.1145
lclavicle 1.08934e-013 -2.06736e-014
lhumerus -15.8865 6.37363 75.6281
lradius 24.8179
lwrist -21.1512
lhand -9.20161 8.07823
lfingers 7.12502
lthumb 16.7524 37.3755
rfemur -104.678 -24.1729 3.19326
rtibia 96.7734
rfoot -3.46809 5.33529
rtoes -4.15657
lfemur 4.22233 -16.2353 -3.74924
ltibia 11.8647
lfoot -6.88632 -8.21612
ltoes -24.8754
284
root -2.87205 16.5375 25.4653 -219.734 -62.0431 -141.347
lowerback 11.373 -1.31583 -3.30049
upperback 9.47687 -2.74147 2.40723
thorax 3.8617 -1.94151 4.56473
lowerneck 1.61916 -5.67341 -2.87806
upperneck 6.70711 -8.6938 12.2367
head 2.37782 -4.29076 3.96716
rclavicle 2.94201e-014 3.97569e-014
rhumerus -34.2351 -2.70788 -71.8231
rradius 53.4654
rwrist 14.4619
rhand 25.8772 -5.28236
rfingers 7.12502
rthumb 49.9652 -26.5233
lclavicle 2.94201e-014 3.97569e-014
lhumerus -16.879 6.27541 75.077
lradius 24.6638
lwrist -20.2982
lhand -9.49208 8.5883
lfingers 7.12502
lthumb 16.4727 37.909
rfemur -101.013 -24.4958 -0.115684
rtibia 94.746
rfoot -2.60444 4.95575
rtoes -4.9167
lfemur 3.95143 -16.2369 -3.99643
ltibia 10.419
lfoot -5.94707 -7.8827
ltoes -24.141
285
root -2.91962 16.569 25.3683 -219.496 -62.0176 -140.837
lowerback 9.93283 -1.26512 -3.63879
upperback 9.23621 -2.58982 2.24109
thorax 4.38057 -1.85311 4.51678
lowerneck 1.45894 -5.81409 -3.34562
upperneck 7.28026 -9.02961 12.8653
head 2.647 -4.44172 4.20787
rclavicle -2.70347e-014 -4.45278e-014
rhumerus -34.5797 -3.06232 -72.2179
rradius 52.7752
rwrist 15.3466
rhand 24.4682 -5.52947
rfingers 7.12502
rthumb 48.6724 -27.4223
lclavicle -2.70347e-014 -4.45278e-014
lhumerus -17.8826 6.71782 74.3467
lradius 24.4546
lwrist -20.1107
lhand -9.28164 8.72863
lfingers 7.12502
lthumb 16.6753 38.0324
rfemur -97.334 -23.8661 -2.1008
rtibia 93.1018
rfoot -1.62567 4.03024
rtoes -3.0736
lfemur 3.79112 -15.6421 -3.2709
ltibia 9.71448
lfoot -5.35593 -8.04056
ltoes -22.745
286
root -2.94168 16.6064 25.263 -221.14 -62.4591 -138.893
lowerback 9.74413 -1.35668 -3.77193
upperback 8.94209 -2.66267 2.07381
thorax 4.17347 -1.85952 4.41947
lowerneck 1.35229 -6.06812 -3.4437
upperneck 7.88351 -9.53559 13.405
head 2.91555 -4.67304 4.35631
rclavicle -3.65764e-014 2.22639e-014
rhumerus -35.2827 -3.67997 -72.72
rradius 52.1532
rwrist 16.403
rhand 23.7173 -5.62748
rfingers 7.12502
rthumb 47.981 -27.8492
lclavicle -3.65764e-014 2.22639e-014
lhumerus -18.9216 7.45472 73.262
lradius 24.1442
lwrist -20.7653
lhand -8.71885 8.47124
lfingers 7.12502
lthumb 17.2171 37.7285
rfemur -92.8743 -23.4654 -3.7214
rtibia 91.773
rfoot -1.01582 3.2558
rtoes -5.80799
lfemur 3.28499 -15.973 -2.37241
ltibia 10.0682
lfoot -4.77374 -7.87447
ltoes -23.3048
